<svg width="20" height="20" viewBox="0 0 20 20" fill="none" xmlns="http://www.w3.org/2000/svg">
<path d="M3.24241 17.3939L2.5 17.5L2.60606 16.7576C2.76738 15.6283 2.84804 15.0637 3.0986 14.5626C3.34916 14.0615 3.75247 13.6582 4.55909 12.8515L14.1523 3.25841C14.5052 2.90545 14.6817 2.72897 14.872 2.63462C15.2342 2.45513 15.6595 2.45513 16.0218 2.63462C16.2122 2.72897 16.3886 2.90545 16.7416 3.25841C17.0946 3.61137 17.271 3.78786 17.3654 3.97824C17.5449 4.34047 17.5449 4.76574 17.3654 5.12797C17.271 5.31834 17.0946 5.49483 16.7416 5.84779L7.14847 15.4409C6.34185 16.2475 5.93854 16.6508 5.43742 16.9014C4.93631 17.1519 4.37167 17.2326 3.24241 17.3939Z" stroke="#ABABAB" stroke-width="1.5" stroke-linecap="round" stroke-linejoin="round"/>
<path d="M5 12.5L7.5 15M7.08333 10.4167L9.58333 12.9167" stroke="#ABABAB" stroke-width="1.5" stroke-linecap="round" stroke-linejoin="round"/>
</svg>
