<svg width="36" height="36" viewBox="0 0 36 36" fill="none" xmlns="http://www.w3.org/2000/svg">
<path d="M3.53571 32.1429C3.27997 32.1429 3.0347 32.0413 2.85386 31.8605C2.67302 31.6796 2.57143 31.4343 2.57143 31.1786C2.57143 30.9229 2.67302 30.6776 2.85386 30.4967C3.0347 30.3159 3.27997 30.2143 3.53571 30.2143H32.4643C32.72 30.2143 32.9653 30.3159 33.1461 30.4967C33.327 30.6776 33.4286 30.9229 33.4286 31.1786C33.4286 31.4343 33.327 31.6796 33.1461 31.8605C32.9653 32.0413 32.72 32.1429 32.4643 32.1429H3.53571ZM6.42857 24.75C6.42857 25.2143 6.52002 25.6741 6.69771 26.1031C6.8754 26.5321 7.13583 26.9218 7.46416 27.2502C8.12723 27.9132 9.02655 28.2857 9.96428 28.2857H13.1786C13.6429 28.2857 14.1027 28.1943 14.5316 28.0166C14.9606 27.8389 15.3504 27.5785 15.6787 27.2502C16.007 26.9218 16.2675 26.5321 16.4451 26.1031C16.6228 25.6741 16.7143 25.2143 16.7143 24.75V7.39288C16.7143 6.45515 16.3418 5.55583 15.6787 4.89276C15.0156 4.22968 14.1163 3.85717 13.1786 3.85717H9.96428C9.02655 3.85717 8.12723 4.22968 7.46416 4.89276C6.80108 5.55583 6.42857 6.45515 6.42857 7.39288V24.75ZM19.2857 24.75C19.2857 25.2143 19.3772 25.6741 19.5549 26.1031C19.7325 26.5321 19.993 26.9218 20.3213 27.2502C20.9844 27.9132 21.8837 28.2857 22.8214 28.2857H26.0357C26.9734 28.2857 27.8728 27.9132 28.5358 27.2502C29.1989 26.5871 29.5714 25.6878 29.5714 24.75V14.4643C29.5714 13.5266 29.1989 12.6273 28.5358 11.9642C27.8728 11.3011 26.9734 10.9286 26.0357 10.9286H22.8214C21.8837 10.9286 20.9844 11.3011 20.3213 11.9642C19.6582 12.6273 19.2857 13.5266 19.2857 14.4643V24.75Z" fill="#C895F4"/>
</svg>
