<svg width="35" height="35" viewBox="0 0 35 35" fill="none" xmlns="http://www.w3.org/2000/svg">
<g clip-path="url(#clip0_1_273)">
<path d="M6.56251 29.8962H16.4063L25.1563 27.7087L30.4646 25.4453C30.9748 25.197 31.3733 24.7665 31.5816 24.2388C31.7899 23.711 31.7928 23.1243 31.5897 22.5946C31.3867 22.0648 30.9923 21.6303 30.4846 21.3771C29.9769 21.1238 29.3927 21.07 28.8473 21.2264L19.6875 23.3337H19.1406M6.56251 29.8962V22.2399M6.56251 29.8962H1.45834V22.2399H6.56251M19.1406 23.3337C19.8658 23.3337 20.5613 23.0456 21.0741 22.5328C21.5869 22.02 21.875 21.3245 21.875 20.5993C21.875 19.8741 21.5869 19.1786 21.0741 18.6658C20.5613 18.153 19.8658 17.8649 19.1406 17.8649H12.304C11.8729 17.8639 11.4458 17.9479 11.0472 18.1121C10.6486 18.2762 10.2862 18.5173 9.98084 18.8216L6.56251 22.2399M19.1406 23.3337H16.0417M24.7917 3.40845C25.5697 3.03988 26.4282 2.87407 27.2875 2.92645C28.1468 2.97882 28.9788 3.24768 29.7063 3.70801C30.4337 4.16834 31.033 4.80518 31.4482 5.5593C31.8634 6.31341 32.0811 7.16029 32.0811 8.02116C32.0811 8.88203 31.8634 9.72891 31.4482 10.483C31.033 11.2371 30.4337 11.874 29.7063 12.3343C28.9788 12.7946 28.1468 13.0635 27.2875 13.1159C26.4282 13.1682 25.5697 13.0024 24.7917 12.6339M21.1458 13.1253C20.4756 13.1253 19.8118 12.9933 19.1926 12.7368C18.5733 12.4803 18.0106 12.1043 17.5367 11.6304C17.0627 11.1564 16.6867 10.5937 16.4302 9.97444C16.1737 9.35517 16.0417 8.69145 16.0417 8.02116C16.0417 7.35087 16.1737 6.68715 16.4302 6.06788C16.6867 5.44861 17.0627 4.88593 17.5367 4.41197C18.0106 3.938 18.5733 3.56203 19.1926 3.30552C19.8118 3.04902 20.4756 2.91699 21.1458 2.91699C22.4996 2.91699 23.7978 3.45475 24.755 4.41197C25.7123 5.36919 26.25 6.66745 26.25 8.02116C26.25 9.37487 25.7123 10.6731 24.755 11.6304C23.7978 12.5876 22.4996 13.1253 21.1458 13.1253Z" stroke="#C895F4" stroke-width="3" stroke-linecap="square"/>
</g>
<defs>
<clipPath id="clip0_1_273">
<rect width="35" height="35" fill="white"/>
</clipPath>
</defs>
</svg>
