<svg width="39" height="31" viewBox="0 0 39 31" fill="none" xmlns="http://www.w3.org/2000/svg">
<path d="M5.6875 8.125C5.6875 5.97012 6.54352 3.90349 8.06726 2.37976C9.59099 0.856024 11.6576 0 13.8125 0C15.9674 0 18.034 0.856024 19.5577 2.37976C21.0815 3.90349 21.9375 5.97012 21.9375 8.125C21.9375 10.2799 21.0815 12.3465 19.5577 13.8702C18.034 15.394 15.9674 16.25 13.8125 16.25C11.6576 16.25 9.59099 15.394 8.06726 13.8702C6.54352 12.3465 5.6875 10.2799 5.6875 8.125ZM8.125 19.5C5.97012 19.5 3.90349 20.356 2.37976 21.8798C0.856024 23.4035 0 25.4701 0 27.625L0 30.875H27.625V27.625C27.625 25.4701 26.769 23.4035 25.2452 21.8798C23.7215 20.356 21.6549 19.5 19.5 19.5H8.125ZM39 30.875H30.875V27.625C30.875 24.4416 29.5685 21.5637 27.4625 19.5H30.875C31.942 19.5 32.9985 19.7102 33.9843 20.1185C34.9701 20.5268 35.8658 21.1253 36.6202 21.8798C37.3747 22.6342 37.9732 23.5299 38.3815 24.5157C38.7898 25.5015 39 26.558 39 27.625V30.875ZM25.1875 16.25C24.1956 16.2504 23.2119 16.0692 22.2852 15.7154C24.1583 13.6313 25.1923 10.927 25.1875 8.125C25.1918 5.32277 24.1572 2.61841 22.2836 0.534625C23.3968 0.109521 24.5899 -0.0655244 25.7783 0.0218968C26.9667 0.109318 28.1213 0.457065 29.1603 1.04049C30.1993 1.62392 31.0973 2.42874 31.7906 3.39792C32.4838 4.36709 32.9554 5.47689 33.172 6.64866C33.3885 7.82043 33.3446 9.02548 33.0435 10.1784C32.7423 11.3313 32.1912 12.4039 31.4293 13.3201C30.6674 14.2363 29.7133 14.9737 28.6346 15.48C27.556 15.9864 26.3791 16.2492 25.1875 16.25Z" fill="#C895F4"/>
</svg>
